<svg width="64" height="64" viewBox="0 0 64 64" fill="none" xmlns="http://www.w3.org/2000/svg">
<g clip-path="url(#clip0_8_49)">
<rect width="64" height="64" fill="white"/>
<path fill-rule="evenodd" clip-rule="evenodd" d="M64 0H0V64H64V0ZM10.4103 10.3V27.707H14.1423V20.8745L19.9957 27.707H24.8523L17.2415 18.9606L24.8523 10.3H20.2258L14.1423 17.2226V10.3H10.4103ZM16.9369 43.2714L13.2409 35.9H9.1L15.0046 47.3172V53.307H18.7365V47.3192L24.6666 35.9H20.6536L16.9369 43.2714ZM33.6135 44.6163C33.6135 43.3042 33.8265 42.1028 34.2525 41.0122C34.6955 39.9046 35.3175 38.9503 36.1184 38.1494C36.9194 37.3314 37.8651 36.7009 38.9557 36.2579C40.0463 35.8148 41.2562 35.5933 42.5854 35.5933C43.8805 35.5933 45.0733 35.8148 46.1639 36.2579C47.2716 36.7009 48.2258 37.3314 49.0267 38.1494C49.8277 38.9503 50.4411 39.9046 50.8671 41.0122C51.3102 42.1028 51.5317 43.3042 51.5317 44.6163C51.5317 45.9284 51.3102 47.1383 50.8671 48.246C50.4411 49.3366 49.8277 50.2908 49.0267 51.1088C48.2258 51.9097 47.2716 52.5317 46.1639 52.9747C45.0733 53.4008 43.8805 53.6138 42.5854 53.6138C41.2562 53.6138 40.0463 53.4008 38.9557 52.9747C37.8651 52.5317 36.9194 51.9097 36.1184 51.1088C35.3175 50.2908 34.6955 49.3366 34.2525 48.246C33.8265 47.1383 33.6135 45.9284 33.6135 44.6163ZM37.4221 44.6163C37.4221 45.6899 37.6436 46.6271 38.0866 47.428C38.5297 48.2289 39.1346 48.8509 39.9015 49.294C40.6853 49.737 41.58 49.9585 42.5854 49.9585C43.5737 49.9585 44.4513 49.737 45.2182 49.294C46.002 48.8509 46.6155 48.2289 47.0586 47.428C47.5016 46.6271 47.7231 45.6813 47.7231 44.5907C47.7231 43.5172 47.5016 42.5799 47.0586 41.779C46.6155 40.9781 46.002 40.3647 45.2182 39.9386C44.4513 39.4956 43.5737 39.2741 42.5854 39.2741C41.58 39.2741 40.6853 39.4956 39.9015 39.9386C39.1346 40.3817 38.5297 41.0037 38.0866 41.8046C37.6436 42.5885 37.4221 43.5257 37.4221 44.6163ZM42.5664 16.266L46.0298 27.707H50.1451L54.9249 10.3003H51.1419L48.0034 22.3683L44.3428 10.3003H40.7643L37.1239 22.3681L33.9652 10.3003H30.2078L34.9877 27.707H39.1029L42.5664 16.266Z" fill="black"/>
</g>
<defs>
<clipPath id="clip0_8_49">
<rect width="64" height="64" fill="white"/>
</clipPath>
</defs>
</svg>
