<svg width="64" height="64" viewBox="0 0 64 64" fill="none" xmlns="http://www.w3.org/2000/svg">
<rect width="64" height="64" fill="white"/>
<path d="M10.4104 27.7071V10.3H14.1423V27.7071H10.4104ZM19.9958 27.7071L12.8132 19.3231V18.7352L20.2259 10.3H24.8524L16.6984 19.5787L16.8007 18.454L24.8524 27.7071H19.9958Z" fill="black"/>
<path d="M17.8164 45.0253H16.0527L20.6537 35.9H24.6667L18.481 47.8115L18.7366 45.6644V53.3071H15.0047V45.6644L15.2603 47.8115L9.1001 35.9H13.241L17.8164 45.0253Z" fill="black"/>
<path d="M33.6136 44.6163C33.6136 43.3042 33.8266 42.1029 34.2526 41.0122C34.6956 39.9046 35.3176 38.9503 36.1185 38.1494C36.9195 37.3315 37.8652 36.701 38.9558 36.2579C40.0464 35.8148 41.2563 35.5933 42.5855 35.5933C43.8806 35.5933 45.0734 35.8148 46.164 36.2579C47.2717 36.701 48.2259 37.3315 49.0268 38.1494C49.8278 38.9503 50.4412 39.9046 50.8672 41.0122C51.3103 42.1029 51.5318 43.3042 51.5318 44.6163C51.5318 45.9285 51.3103 47.1384 50.8672 48.246C50.4412 49.3366 49.8278 50.2909 49.0268 51.1088C48.2259 51.9098 47.2717 52.5317 46.164 52.9748C45.0734 53.4008 43.8806 53.6138 42.5855 53.6138C41.2563 53.6138 40.0464 53.4008 38.9558 52.9748C37.8652 52.5317 36.9195 51.9098 36.1185 51.1088C35.3176 50.2909 34.6956 49.3366 34.2526 48.246C33.8266 47.1384 33.6136 45.9285 33.6136 44.6163ZM37.4222 44.6163C37.4222 45.6899 37.6437 46.6271 38.0867 47.4281C38.5298 48.229 39.1347 48.851 39.9016 49.294C40.6854 49.7371 41.5801 49.9586 42.5855 49.9586C43.5738 49.9586 44.4514 49.7371 45.2183 49.294C46.0021 48.851 46.6156 48.229 47.0586 47.4281C47.5017 46.6271 47.7232 45.6814 47.7232 44.5908C47.7232 43.5172 47.5017 42.58 47.0586 41.7791C46.6156 40.9782 46.0021 40.3647 45.2183 39.9387C44.4514 39.4956 43.5738 39.2741 42.5855 39.2741C41.5801 39.2741 40.6854 39.4956 39.9016 39.9387C39.1347 40.3817 38.5298 41.0037 38.0867 41.8046C37.6437 42.5885 37.4222 43.5257 37.4222 44.6163Z" fill="black"/>
<path d="M46.0299 27.7071L41.4801 12.6775L40.7644 10.3004H44.3429L48.9949 25.6367L47.1801 25.5344L51.142 10.3004H54.925L50.1452 27.7071H46.0299ZM34.9878 27.7071L30.2079 10.3004H33.9653L37.9528 25.5344L36.138 25.6367L40.7644 10.3004H44.3429L43.6528 12.6775L39.103 27.7071H34.9878Z" fill="black"/>
<path d="M17.8164 45.0321H16.0527L20.6537 35.9068H24.6667L18.481 47.8183L18.7366 45.6711V53.3139H15.0047V45.6711L15.2603 47.8183L9.1001 35.9068H13.241L17.8164 45.0321Z" fill="#FF0000"/>
<path d="M33.6136 44.6231C33.6136 43.311 33.8266 42.1096 34.2526 41.019C34.6956 39.9114 35.3176 38.9571 36.1185 38.1562C36.9194 37.3382 37.8652 36.7077 38.9558 36.2647C40.0464 35.8216 41.2563 35.6001 42.5855 35.6001C43.8806 35.6001 45.0734 35.8216 46.164 36.2647C47.2717 36.7077 48.2259 37.3382 49.0268 38.1562C49.8278 38.9571 50.4412 39.9114 50.8672 41.019C51.3103 42.1096 51.5318 43.311 51.5318 44.6231C51.5318 45.9353 51.3103 47.1452 50.8672 48.2528C50.4412 49.3434 49.8278 50.2977 49.0268 51.1156C48.2259 51.9165 47.2717 52.5385 46.164 52.9816C45.0734 53.4076 43.8806 53.6206 42.5855 53.6206C41.2563 53.6206 40.0464 53.4076 38.9558 52.9816C37.8652 52.5385 36.9194 51.9165 36.1185 51.1156C35.3176 50.2977 34.6956 49.3434 34.2526 48.2528C33.8266 47.1452 33.6136 45.9353 33.6136 44.6231ZM37.4221 44.6231C37.4221 45.6967 37.6437 46.6339 38.0867 47.4348C38.5298 48.2358 39.1347 48.8577 39.9016 49.3008C40.6854 49.7439 41.5801 49.9654 42.5855 49.9654C43.5738 49.9654 44.4514 49.7439 45.2183 49.3008C46.0021 48.8577 46.6156 48.2358 47.0586 47.4348C47.5017 46.6339 47.7232 45.6882 47.7232 44.5976C47.7232 43.524 47.5017 42.5868 47.0586 41.7859C46.6156 40.9849 46.0021 40.3715 45.2183 39.9455C44.4514 39.5024 43.5738 39.2809 42.5855 39.2809C41.5801 39.2809 40.6854 39.5024 39.9016 39.9455C39.1347 40.3885 38.5298 41.0105 38.0867 41.8114C37.6437 42.5953 37.4221 43.5325 37.4221 44.6231Z" fill="#FF0000"/>
</svg>
